<svg fill="none" height="24" viewBox="0 0 24 24" width="24" xmlns="http://www.w3.org/2000/svg"><path d="m0 8c0-4.41828 3.58172-8 8-8h8c4.4183 0 8 3.58172 8 8v8c0 4.4183-3.5817 8-8 8h-8c-4.41828 0-8-3.5817-8-8z" fill="#3984fd"/><g fill="#fff"><path d="m5 9c0-.55228.44772-1 1-1h6c1.6569 0 3 1.34315 3 3v4c0 .5523-.4477 1-1 1h-6c-1.65685 0-3-1.3431-3-3z"/><path d="m15.5 11.7515c0-.4844.1758-.9524.4948-1.317l1.6908-1.93224c.456-.52118 1.3144-.19865 1.3144.49387v6.00787c0 .6925-.8584 1.015-1.3144.4938l-1.6908-1.9322c-.319-.3646-.4948-.8326-.4948-1.317z"/></g></svg>