<svg version="1.0" xmlns="http://www.w3.org/2000/svg"
 width="1000.000000pt" height="1000.000000pt" viewBox="0 0 1000.000000 1000.000000"
 preserveAspectRatio="xMidYMid meet">

<g transform="translate(0.000000,1000.000000) scale(0.100000,-0.100000)"
fill="#fc1e1e" stroke="none">
<path d="M4750 9994 c-19 -2 -98 -9 -175 -15 -1308 -101 -2560 -752 -3412
-1776 -1211 -1452 -1500 -3450 -752 -5188 574 -1331 1736 -2373 3120 -2794
875 -266 1786 -290 2674 -71 736 182 1400 519 2005 1018 148 123 499 474 622
622 499 605 836 1269 1018 2005 148 597 184 1175 114 1785 -216 1872 -1477
3468 -3255 4118 -542 199 -1159 305 -1736 300 -103 0 -204 -3 -223 -4z m685
-490 c821 -78 1619 -387 2280 -884 298 -224 601 -520 838 -817 250 -314 497
-741 648 -1118 535 -1340 401 -2854 -359 -4075 -181 -291 -376 -535 -637 -796
-384 -386 -743 -645 -1210 -874 -967 -475 -2043 -589 -3095 -329 -688 170
-1329 506 -1880 985 -119 103 -381 370 -481 489 -594 708 -950 1554 -1044
2485 -23 220 -23 638 -1 855 96 940 447 1777 1045 2490 106 127 366 390 496
502 554 479 1189 808 1887 978 501 122 995 157 1513 109z"/>
<path d="M2790 8177 c-85 -84 -362 -355 -615 -602 -253 -247 -462 -453 -464
-458 -2 -5 44 -57 101 -115 57 -59 423 -438 813 -842 390 -404 779 -807 865
-895 85 -88 188 -194 228 -236 l73 -75 -548 -561 c-1166 -1191 -1528 -1563
-1531 -1572 -1 -4 174 -180 390 -391 216 -211 495 -485 619 -608 l227 -225
259 264 c142 145 366 375 498 510 889 911 1300 1329 1306 1329 4 0 339 -336
745 -747 406 -412 867 -878 1025 -1037 l287 -289 135 129 c437 419 1107 1081
1105 1091 -2 6 -163 177 -358 380 -195 203 -623 647 -950 988 -327 341 -627
654 -667 695 l-72 75 142 145 c352 358 1818 1860 1862 1908 l49 53 -174 173
c-515 507 -1060 1036 -1068 1036 -5 0 -463 -463 -1017 -1030 -554 -566 -1011
-1030 -1016 -1030 -4 0 -475 470 -1046 1045 -571 575 -1040 1045 -1043 1045
-3 0 -75 -69 -160 -153z"/>
</g>
</svg>
