<svg xmlns="http://www.w3.org/2000/svg" width="1280" height="1280" viewBox="0 0 1280 1280" version="1.1"><path d="M 593.500 1.095 C 497.194 8.996, 409.218 35.323, 329.133 80.206 C 148.926 181.201, 27.960 361.342, 3.923 564.500 C -1.131 607.216, -1.472 664.628, 3.073 707.500 C 20.624 873.038, 102.226 1024.931, 231.500 1132.693 C 324.031 1209.826, 437.492 1259.445, 557 1275.040 C 609.172 1281.848, 670.828 1281.848, 723 1275.040 C 842.511 1259.444, 955.225 1210.179, 1048.227 1132.888 C 1167.481 1033.779, 1246.919 895.850, 1271.913 744.500 C 1274.785 727.105, 1277.834 701.289, 1278.616 687.750 C 1278.988 681.288, 1279.677 676, 1280.147 676 C 1280.616 676, 1281 659.323, 1281 638.941 C 1281 618.530, 1280.614 602.121, 1280.141 602.413 C 1279.668 602.705, 1278.969 597.894, 1278.586 591.722 C 1276.521 558.360, 1270.089 519.203, 1260.481 481.500 C 1217.279 311.978, 1105.186 166.693, 950.867 80.206 C 880.214 40.609, 798.637 14.045, 716.975 4.044 C 693.337 1.149, 670.091 0.006, 637.523 0.137 C 618.810 0.213, 599 0.644, 593.500 1.095 M 595 99.513 C 541.637 104.093, 491.203 115.704, 443 134.507 C 349.987 170.790, 268.703 231.992, 208.597 311 C 186.895 339.526, 171.154 364.908, 154.642 398 C 116.729 473.981, 98 554, 98 640 C 98 725.543, 116.346 804.420, 153.939 880.500 C 190.748 954.996, 242.265 1017.994, 308.500 1069.506 C 355.160 1105.795, 415.144 1137.451, 472.007 1155.796 C 527.382 1173.660, 580.848 1182, 640 1182 C 725.578 1182, 803.299 1163.994, 879.500 1126.514 C 935.008 1099.213, 980.102 1066.907, 1024 1022.994 C 1098.582 948.386, 1149.414 854.201, 1170.908 750.788 C 1184.210 686.789, 1185.638 616.747, 1174.978 551.132 C 1162.720 475.680, 1133.328 401.562, 1090.063 337 C 1057.779 288.823, 1015.656 244.140, 969 208.577 C 894.258 151.606, 805.155 114.750, 712.500 102.481 C 678.829 98.022, 627.481 96.725, 595 99.513 M 914 377.004 C 907.955 379.887, 895.609 391.990, 737.747 549.797 L 567.995 719.491 469.747 621.298 C 388.903 540.498, 370.526 522.613, 366 520.329 C 361.221 517.918, 359.319 517.550, 351.500 517.527 C 336.611 517.482, 335.199 518.426, 304.703 548.803 C 283.484 569.940, 278.382 575.565, 275.952 580.500 C 270.420 591.739, 271.183 604.293, 278.048 615 C 279.635 617.475, 345.523 684.075, 424.467 762.999 L 568 906.498 784.955 689.545 C 984.837 489.664, 1002.126 472.116, 1004.654 466.546 C 1008.121 458.908, 1008.517 448.200, 1005.617 440.500 C 1002.735 432.850, 998.046 427.392, 973.189 402.750 C 946.195 375.989, 944.251 374.719, 929.500 374.213 C 921.170 373.928, 920.016 374.136, 914 377.004 M 0.453 640 C 0.453 660.625, 0.586 669.063, 0.749 658.750 C 0.911 648.438, 0.911 631.563, 0.749 621.250 C 0.586 610.938, 0.453 619.375, 0.453 640" stroke="none" fill="#4be5b4" fill-rule="evenodd"/></svg>